<?xml version="1.0" encoding="utf-8"?>
<svg width="32" height="24" viewBox="0 0 32 24" fill="none" xmlns="http://www.w3.org/2000/svg">
  <defs>
    <linearGradient id="gradient_1" gradientUnits="userSpaceOnUse" x1="2.919" y1="2.92" x2="10.414" y2="10.415">
      <stop offset="0" stop-color="#FFFFFF" stop-opacity="0.6" />
      <stop offset="1" stop-color="#FFFFFF" stop-opacity="0.302" />
    </linearGradient>
    <linearGradient id="gradient_2" gradientUnits="userSpaceOnUse" x1="2.919" y1="2.919" x2="10.414" y2="10.414">
      <stop offset="0" stop-color="#FFFFFF" stop-opacity="0.6" />
      <stop offset="0.493" stop-color="#FFFFFF" stop-opacity="0" />
      <stop offset="0.997" stop-color="#FFFFFF" stop-opacity="0.302" />
    </linearGradient>
    <clipPath id="clip_path_3">
      <rect width="24" height="24" />
    </clipPath>
    <linearGradient id="gradient_4" gradientUnits="userSpaceOnUse" x1="3.955" y1="0.617" x2="18.366" y2="15.028">
      <stop offset="0" stop-color="#FFFFFF" stop-opacity="0.6" />
      <stop offset="1" stop-color="#FFFFFF" stop-opacity="0.302" />
    </linearGradient>
    <linearGradient id="gradient_5" gradientUnits="userSpaceOnUse" x1="10.547" y1="1.645" x2="48.977" y2="40.075">
      <stop offset="0" stop-color="#FFFFFF" stop-opacity="0.6" />
      <stop offset="0.493" stop-color="#FFFFFF" stop-opacity="0" />
      <stop offset="0.997" stop-color="#FFFFFF" stop-opacity="0.302" />
    </linearGradient>
  </defs>
  <g id="SingleElement">
    <g transform="translate(0 1)">
      <path d="M4.82817 6.66733C6.11417 5.38133 7.82817 3.66733 8.08084 3.41467C8.86217 2.63333 8.86217 1.36733 8.08084 0.586C7.2995 -0.195333 6.0335 -0.195333 5.25217 0.586C4.8615 0.976666 0.976167 4.862 0.5855 5.25267C0.488167 5.35 0.402166 5.45533 0.3295 5.56667C-0.109833 6.232 -0.109833 7.102 0.3295 7.76733C0.402833 7.878 0.488167 7.98333 0.5855 8.08133C0.5855 8.08133 0.5855 8.08133 0.5855 8.08133C0.5855 8.08133 0.5855 8.08133 0.5855 8.08133C0.976167 8.472 4.8615 12.3573 5.25217 12.748C6.0335 13.5293 7.2995 13.5293 8.08084 12.748C8.86217 11.9667 8.86217 10.7007 8.08084 9.91933C7.8275 9.66733 6.1135 7.95333 4.82817 6.66733C4.82817 6.66733 4.82817 6.66733 4.82817 6.66733Z" fill="url(#gradient_1)" transform="matrix(1 0 0 1 3.334 1.333)" />
      <path d="M6.6662 0.333328C7.11154 0.333328 7.5302 0.506662 7.84487 0.821328C8.15954 1.13599 8.33287 1.55466 8.33287 1.99999C8.33287 2.44533 8.15954 2.864 7.84487 3.17866C7.84487 3.17866 4.59221 6.43133 4.59221 6.43133L4.35687 6.66666L4.59287 6.90266C4.59287 6.90266 7.84554 10.1553 7.84554 10.1553C8.15954 10.4693 8.33287 10.888 8.33287 11.3333C8.33287 11.7787 8.15954 12.1973 7.84487 12.512C7.5302 12.8267 7.11154 13 6.6662 13C6.22087 13 5.80221 12.8267 5.48754 12.512C5.48754 12.512 1.44754 8.472 1.44754 8.472C1.44754 8.472 0.820872 7.84533 0.820872 7.84533C0.740872 7.76533 0.668871 7.67733 0.606872 7.58333C0.238872 7.02666 0.238872 6.30666 0.606872 5.75C0.668871 5.65666 0.740872 5.568 0.820872 5.488C0.820872 5.488 5.48754 0.821329 5.48754 0.821329C5.80221 0.506662 6.22087 0.333328 6.6662 0.333328C6.6662 0.333328 6.6662 0.333328 6.6662 0.333328ZM6.66616 0C6.15417 0 5.64216 0.195333 5.25216 0.586C4.8615 0.976666 0.976166 4.862 0.5855 5.25267C0.488166 5.35 0.402166 5.45533 0.3295 5.56667C-0.109833 6.232 -0.109833 7.102 0.3295 7.76733C0.402833 7.878 0.488166 7.98333 0.5855 8.08133C0.5855 8.08133 0.5855 8.08133 0.5855 8.08133C0.5855 8.08133 0.5855 8.08133 0.5855 8.08133C0.976166 8.472 4.8615 12.3573 5.25216 12.748C5.64216 13.138 6.15417 13.3333 6.66616 13.3333C7.17816 13.3333 7.69016 13.138 8.08016 12.7473C8.8615 11.966 8.8615 10.7 8.08016 9.91866C7.8275 9.666 6.1135 7.952 4.8275 6.666C6.1135 5.38 7.8275 3.666 8.08016 3.41333C8.8615 2.632 8.8615 1.366 8.08016 0.584667C7.69016 0.195333 7.17816 0 6.66616 0C6.66616 0 6.66616 0 6.66616 0C6.66616 0 6.66616 0 6.66616 0Z" fill="url(#gradient_2)" transform="translate(3.334 1.333)" />
    </g>
    <g clip-path="url(#clip_path_3)" transform="translate(8 0)">
      <path d="M12.5793 2.98703L5.57925 2.98703C5.57925 2.98703 5.57925 0.693034 5.57925 0.693034C5.57925 0.0780339 4.83725 -0.230966 4.40125 0.202034C4.40125 0.202034 0.29625 4.27603 0.29625 4.27603C-0.0987501 4.66703 -0.0987501 5.30603 0.29625 5.69703C0.29625 5.69703 4.40025 9.77203 4.40025 9.77203C4.83725 10.205 5.57925 9.89504 5.57925 9.28104C5.57925 9.28104 5.57925 6.98703 5.57925 6.98703C5.57925 6.98703 12.5793 6.98703 12.5793 6.98703C13.6842 6.98703 14.5793 7.88204 14.5793 8.98703C14.5793 8.98703 14.5793 13.88 14.5793 13.88C14.5793 14.876 15.2603 15.8 16.2432 15.96C17.4963 16.163 18.5793 15.202 18.5793 13.987C18.5793 13.987 18.5793 8.98703 18.5793 8.98703C18.5793 5.67303 15.8932 2.98703 12.5793 2.98703C12.5793 2.98703 12.5793 2.98703 12.5793 2.98703Z" fill="url(#gradient_4)" transform="translate(2.421 4.013)" />
      <path d="M0.847666 -6.18833C0.923666 -6.18833 1.04467 -6.13633 1.04467 -5.99533C1.04467 -5.99533 1.04467 -3.70133 1.04467 -3.70133L1.04467 -3.20133L1.54467 -3.20133C1.54467 -3.20133 8.54467 -3.20133 8.54467 -3.20133C11.5777 -3.20133 14.0447 -0.734334 14.0447 2.29867C14.0447 2.29867 14.0447 7.29867 14.0447 7.29867C14.0447 8.12566 13.3717 8.79867 12.5447 8.79867C12.4607 8.79867 12.3757 8.79167 12.2887 8.77767C11.5797 8.66267 11.0447 7.98066 11.0447 7.19167C11.0447 7.19167 11.0447 2.29867 11.0447 2.29867C11.0447 0.919667 9.92366 -0.201334 8.54467 -0.201334C8.54467 -0.201334 1.54467 -0.201334 1.54467 -0.201334L1.04467 -0.201334L1.04467 0.298666C1.04467 0.298666 1.04467 2.59267 1.04467 2.59267C1.04467 2.73367 0.923666 2.78566 0.847666 2.78566C0.798666 2.78566 0.756666 2.76667 0.717666 2.72966C0.717666 2.72966 -3.38633 -1.34633 -3.38633 -1.34633C-3.48133 -1.44033 -3.53433 -1.56733 -3.53433 -1.70133C-3.53433 -1.83533 -3.48133 -1.96233 -3.38533 -2.05733C-3.38533 -2.05733 0.717666 -6.13133 0.717666 -6.13133C0.756666 -6.16933 0.799666 -6.18833 0.847666 -6.18833C0.847666 -6.18833 0.847666 -6.18833 0.847666 -6.18833ZM0.847666 -6.68833C0.678667 -6.68833 0.506666 -6.62633 0.365666 -6.48633C0.365666 -6.48633 -3.73833 -2.41233 -3.73833 -2.41233C-4.13333 -2.02133 -4.13333 -1.38233 -3.73833 -0.991334C-3.73833 -0.991334 0.365666 3.08367 0.365666 3.08367C0.506666 3.22267 0.678667 3.28567 0.847666 3.28567C1.20367 3.28567 1.54467 3.00967 1.54467 2.59267C1.54467 2.59267 1.54467 0.298667 1.54467 0.298667C1.54467 0.298667 8.54467 0.298667 8.54467 0.298667C9.64967 0.298667 10.5447 1.19367 10.5447 2.29867C10.5447 2.29867 10.5447 7.19167 10.5447 7.19167C10.5447 8.18767 11.2257 9.11167 12.2087 9.27167C12.3227 9.28967 12.4347 9.29867 12.5447 9.29867C13.6497 9.29867 14.5447 8.40367 14.5447 7.29867C14.5447 7.29867 14.5447 2.29867 14.5447 2.29867C14.5447 -1.01533 11.8587 -3.70133 8.54467 -3.70133C8.54467 -3.70133 1.54467 -3.70133 1.54467 -3.70133C1.54467 -3.70133 1.54467 -5.99533 1.54467 -5.99533C1.54467 -6.41233 1.20367 -6.68833 0.847666 -6.68833C0.847666 -6.68833 0.847666 -6.68833 0.847666 -6.68833C0.847666 -6.68833 0.847666 -6.68833 0.847666 -6.68833Z" fill="url(#gradient_5)" transform="translate(6.455 10.701)" />
    </g>
  </g>
</svg>